# xmcd
# 
# Track frame offsets:
#     150
#     25555
#     44610
#     65980
#     85535
#     106013
#     131445
#     155153
#     176603
#     196045
#     214135
#     230883
#     251355
#     275415
# 
# Disc length: 4013
# 
# Revision: 4
# Processed by: cddbd v1.5.2PL0 Copyright (c) Steve Scherf et al.
# Submitted via: fre:ac v1.0.17
# 
DISCID=bf0fab0e
DTITLE=THE YELLOW MONKEY - MOTHER OF ALL THE BEST Disk 1-2
DYEAR=2004
DGENRE=Rock and Roll
TTITLE0=NAI
TTITLE1=SPARK
TTITLE2=楽園
TTITLE3=TVのシンガー
TTITLE4=TACTICS
TTITLE5=球根
TTITLE6=BURN
TTITLE7=LOVE LOVE SHOW
TTITLE8=HOTEL宇宙船
TTITLE9=カナリヤ
TTITLE10=パール
TTITLE11=花吹雪
TTITLE12=JAM
TTITLE13=空の青と本当の気持ち
EXTD=YEAR: 2004
EXTT0=
EXTT1=
EXTT2=
EXTT3=
EXTT4=
EXTT5=
EXTT6=
EXTT7=
EXTT8=
EXTT9=
EXTT10=
EXTT11=
EXTT12=
EXTT13=
PLAYORDER=
